<svg xmlns="http://www.w3.org/2000/svg" width="48" height="48" viewBox="0 0 48 48"><defs><linearGradient id="lg" x1="0" y1="0" x2="0" y2="1"><stop offset="0" stop-color="#F6C04A"/><stop offset="1" stop-color="#D88A16"/></linearGradient></defs><path d="M24 2 L43.05 13 L43.05 35 L24 46 L4.95 35 L4.95 13Z" fill="url(#lg)" stroke="#2B1B0F" stroke-width="2.2" stroke-linejoin="round"/><path d="M24 7.5 L38.29 15.75 L38.29 32.25 L24 40.5 L9.71 32.25 L9.71 15.75Z" fill="none" stroke="#FFF1C9" stroke-opacity=".55" stroke-width="1.2" stroke-linejoin="round"/><g transform="rotate(-16 25.5 28)"><ellipse cx="24.24" cy="19.39" rx="4.83" ry="7.56" transform="rotate(-24 24.24 19.39)" fill="#FFF6DF" fill-opacity="0.96" stroke="#2B1B0F" stroke-width="1.37"/><ellipse cx="30.12" cy="20.44" rx="4.2" ry="6.62" transform="rotate(22 30.12 20.44)" fill="#FFF6DF" fill-opacity="0.96" stroke="#2B1B0F" stroke-width="1.37"/><path d="M33.9 26.32 L38.1 28 L33.9 29.68Z" fill="#2B1B0F"/><clipPath id="bc255_280_105"><ellipse cx="25.5" cy="28" rx="9.03" ry="6.41"/></clipPath><ellipse cx="25.5" cy="28" rx="9.03" ry="6.41" fill="#2B1B0F"/><g clip-path="url(#bc255_280_105)" fill="#F2B53A"><rect x="22.77" y="21.59" width="2.73" height="12.81"/><rect x="28.02" y="21.59" width="2.52" height="12.81"/></g><ellipse cx="25.5" cy="28" rx="9.03" ry="6.41" fill="none" stroke="#2B1B0F" stroke-width="1.26"/><path d="M13.11 25.48 q-2.31 -4.2 -4.83 -4.83M15 25.06 q-0.63 -4.83 -2.73 -6.09" fill="none" stroke="#2B1B0F" stroke-width="1.16" stroke-linecap="round"/><circle cx="14.16" cy="28.63" r="3.89" fill="#2B1B0F" stroke="#2B1B0F" stroke-width="1.16"/></g></svg>